<?xml version="1.0" encoding="UTF-8"?>
<svg id="_圖層_1" data-name="圖層_1" xmlns="http://www.w3.org/2000/svg" xmlns:xlink="http://www.w3.org/1999/xlink" version="1.1" viewBox="0 0 1700.8 714.3">
  <!-- Generator: Adobe Illustrator 29.5.1, SVG Export Plug-In . SVG Version: 2.1.0 Build 141)  -->
  <defs>
    <style>
      .st0, .st1, .st2, .st3 {
        fill: none;
      }

      .st1 {
        clip-path: url(#clippath-2);
      }

      .st2 {
        clip-path: url(#clippath-4);
      }

      .st4 {
        fill: #009fe8;
      }

      .st5 {
        fill: url(#_未命名漸層);
      }

      .st3 {
        clip-path: url(#clippath);
      }

      .st6 {
        clip-path: url(#clippath-1);
      }

      .st7 {
        clip-path: url(#clippath-3);
      }

      .st8 {
        clip-path: url(#clippath-5);
      }

      .st9 {
        fill: url(#_未命名漸層_2);
      }

      .st10 {
        fill: url(#_未命名漸層_3);
      }

      .st11 {
        fill: #036eb7;
      }

      .st12 {
        fill: #ffcd2c;
      }

      .st13 {
        fill: #333;
      }
    </style>
    <clipPath id="clippath">
      <polygon class="st0" points="-30.05 954.83 -29.05 954.83 -30.05 955.83 -30.05 954.83"/>
    </clipPath>
    <clipPath id="clippath-1">
      <polygon class="st3" points="-32.05 952.83 -33.05 952.83 -32.05 951.83 -32.05 952.83"/>
    </clipPath>
    <linearGradient id="_未命名漸層" data-name="未命名漸層" x1="167.85" y1="-345.07" x2="335.06" y2="-487.11" gradientTransform="translate(0 716) scale(1 -1)" gradientUnits="userSpaceOnUse">
      <stop offset="0" stop-color="gray"/>
      <stop offset=".32" stop-color="#141414"/>
      <stop offset=".42" stop-color="#090909"/>
      <stop offset=".58" stop-color="#020202"/>
      <stop offset="1" stop-color="#000"/>
    </linearGradient>
    <clipPath id="clippath-2">
      <polygon class="st0" points="-30.05 954.83 -29.05 954.83 -30.05 955.83 -30.05 954.83"/>
    </clipPath>
    <clipPath id="clippath-3">
      <polygon class="st1" points="-32.05 952.83 -33.05 952.83 -32.05 951.83 -32.05 952.83"/>
    </clipPath>
    <linearGradient id="_未命名漸層_2" data-name="未命名漸層 2" x1="422.87" y1="-381.37" x2="587.57" y2="-581.41" gradientTransform="translate(0 716) scale(1 -1)" gradientUnits="userSpaceOnUse">
      <stop offset="0" stop-color="gray"/>
      <stop offset=".32" stop-color="#141414"/>
      <stop offset=".42" stop-color="#090909"/>
      <stop offset=".58" stop-color="#020202"/>
      <stop offset="1" stop-color="#000"/>
    </linearGradient>
    <clipPath id="clippath-4">
      <polygon class="st0" points="-30.05 954.83 -29.05 954.83 -30.05 955.83 -30.05 954.83"/>
    </clipPath>
    <clipPath id="clippath-5">
      <polygon class="st2" points="-32.05 952.83 -33.05 952.83 -32.05 951.83 -32.05 952.83"/>
    </clipPath>
    <linearGradient id="_未命名漸層_3" data-name="未命名漸層 3" x1="545.05" y1="-284.99" x2="702.23" y2="-442.16" gradientTransform="translate(0 716) scale(1 -1)" gradientUnits="userSpaceOnUse">
      <stop offset="0" stop-color="gray"/>
      <stop offset=".32" stop-color="#141414"/>
      <stop offset=".42" stop-color="#090909"/>
      <stop offset=".58" stop-color="#020202"/>
      <stop offset="1" stop-color="#000"/>
    </linearGradient>
  </defs>
  <g class="st6">
    <polygon class="st5" points="260.85 995.53 164.45 1086.83 164.35 1202.63 260.85 1110.13 364.35 1206.13 364.55 1090.93 260.85 995.53"/>
  </g>
  <g class="st7">
    <polygon class="st9" points="483.55 1200.93 387.95 1112.43 387.95 1230.33 481.25 1313.93 581.15 1222.43 581.65 1114.83 483.55 1200.93"/>
  </g>
  <g class="st8">
    <polygon class="st10" points="694.05 995.53 549.65 995.33 469.45 1079.83 602.95 1080.03 602.95 1203.73 694.05 1126.83 694.05 995.53"/>
  </g>
  <g>
    <g>
      <path class="st13" d="M98.55,581.97c0-2.36-.84-4.2-2.51-5.52-1.67-1.32-4.6-2.68-8.8-4.09-4.2-1.41-7.63-2.77-10.3-4.09-8.67-4.26-13.01-10.11-13.01-17.56,0-3.71,1.08-6.98,3.24-9.81s5.22-5.04,9.17-6.62c3.95-1.58,8.4-2.37,13.33-2.37s9.12.86,12.94,2.57c3.82,1.72,6.78,4.16,8.9,7.33,2.11,3.17,3.17,6.8,3.17,10.87h-16.09c0-2.73-.84-4.84-2.51-6.34-1.67-1.5-3.93-2.25-6.78-2.25s-5.16.64-6.83,1.91c-1.67,1.27-2.51,2.89-2.51,4.85,0,1.72.92,3.27,2.76,4.67,1.84,1.4,5.07,2.83,9.7,4.32,4.63,1.49,8.43,3.09,11.4,4.8,7.23,4.17,10.85,9.92,10.85,17.24,0,5.85-2.21,10.45-6.62,13.79-4.41,3.34-10.47,5.01-18.16,5.01-5.42,0-10.34-.97-14.73-2.92-4.4-1.95-7.71-4.61-9.93-8-2.22-3.39-3.33-7.29-3.33-11.7h16.18c0,3.59.93,6.23,2.78,7.93,1.85,1.7,4.86,2.55,9.03,2.55,2.67,0,4.77-.58,6.32-1.72,1.55-1.15,2.32-2.77,2.32-4.85Z"/>
      <path class="st13" d="M145.71,574.85l-6.62,7.26v17.65h-16.14v-66.93h16.14v29.51l5.61-8.5,14.44-21.01h19.95l-22.62,29.61,22.62,37.33h-19.12l-14.25-24.92Z"/>
      <path class="st13" d="M207.68,561.88l12.32-29.05h17.42l-21.56,42.89v24.04h-16.37v-24.04l-21.51-42.89h17.33l12.37,29.05Z"/>
      <path class="st13" d="M317.6,574.8l7.68-41.97h16l-14.21,66.93h-16.73l-8.96-38.16-8.78,38.16h-16.69l-14.25-66.93h16.04l7.68,41.97,9.19-41.97h13.7l9.33,41.97Z"/>
      <path class="st13" d="M364.77,599.76h-16.09v-66.93h16.09v66.93Z"/>
      <path class="st13" d="M410.51,581.97c0-2.36-.84-4.2-2.51-5.52-1.67-1.32-4.6-2.68-8.8-4.09-4.2-1.41-7.63-2.77-10.3-4.09-8.67-4.26-13.01-10.11-13.01-17.56,0-3.71,1.08-6.98,3.24-9.81s5.22-5.04,9.17-6.62c3.95-1.58,8.4-2.37,13.33-2.37s9.12.86,12.94,2.57c3.82,1.72,6.78,4.16,8.9,7.33,2.11,3.17,3.17,6.8,3.17,10.87h-16.09c0-2.73-.84-4.84-2.51-6.34-1.67-1.5-3.93-2.25-6.78-2.25s-5.16.64-6.83,1.91c-1.67,1.27-2.51,2.89-2.51,4.85,0,1.72.92,3.27,2.76,4.67,1.84,1.4,5.07,2.83,9.7,4.32,4.63,1.49,8.43,3.09,11.4,4.8,7.23,4.17,10.85,9.92,10.85,17.24,0,5.85-2.21,10.45-6.62,13.79-4.41,3.34-10.47,5.01-18.16,5.01-5.42,0-10.34-.97-14.73-2.92-4.4-1.95-7.71-4.61-9.93-8-2.22-3.39-3.33-7.29-3.33-11.7h16.18c0,3.59.93,6.23,2.78,7.93,1.85,1.7,4.86,2.55,9.03,2.55,2.67,0,4.77-.58,6.32-1.72,1.55-1.15,2.32-2.77,2.32-4.85Z"/>
      <path class="st13" d="M476.43,571.35h-25.38v16h29.97v12.41h-46.11v-66.93h46.2v12.46h-30.06v14.11h25.38v11.95Z"/>
      <path class="st13" d="M528.24,599.76h-16.09v-66.93h16.09v66.93Z"/>
      <path class="st13" d="M595.35,599.76h-16.04l-23.72-41.65v41.65h-16.14v-66.93h16.14l23.68,41.65v-41.65h16.09v66.93Z"/>
      <path class="st13" d="M658.1,545.29h-20.09v54.48h-16.14v-54.48h-19.72v-12.46h55.95v12.46Z"/>
      <path class="st13" d="M706.42,571.35h-25.38v16h29.97v12.41h-46.11v-66.93h46.2v12.46h-30.06v14.11h25.38v11.95Z"/>
      <path class="st13" d="M742.46,576.09h-8.73v23.67h-16.14v-66.93h26.34c7.94,0,14.14,1.76,18.62,5.28,4.47,3.52,6.71,8.5,6.71,14.92,0,4.65-.94,8.51-2.83,11.57s-4.83,5.54-8.85,7.44l13.98,27.03v.69h-17.28l-11.81-23.67ZM733.73,563.67h10.21c3.06,0,5.37-.81,6.92-2.42,1.55-1.61,2.32-3.86,2.32-6.75s-.78-5.15-2.34-6.8-3.86-2.47-6.9-2.47h-10.21v18.43Z"/>
      <path class="st13" d="M834.91,599.76h-16.04l-23.72-41.65v41.65h-16.14v-66.93h16.14l23.68,41.65v-41.65h16.09v66.93Z"/>
      <path class="st13" d="M883.13,587.26h-22.11l-3.86,12.5h-17.24l24.55-66.93h15.17l24.73,66.93h-17.33l-3.91-12.5ZM864.88,574.8h14.39l-7.22-23.22-7.17,23.22Z"/>
      <path class="st13" d="M956.27,545.29h-20.09v54.48h-16.14v-54.48h-19.72v-12.46h55.95v12.46Z"/>
      <path class="st13" d="M980.27,599.76h-16.09v-66.93h16.09v66.93Z"/>
      <path class="st13" d="M1048.17,567.67c0,6.53-1.21,12.31-3.63,17.33-2.42,5.03-5.86,8.9-10.32,11.61-4.46,2.71-9.54,4.07-15.24,4.07s-10.76-1.31-15.17-3.93c-4.41-2.62-7.85-6.37-10.32-11.24-2.47-4.87-3.76-10.47-3.88-16.78v-3.77c0-6.56,1.2-12.34,3.61-17.35,2.41-5.01,5.85-8.88,10.34-11.61,4.49-2.73,9.6-4.09,15.33-4.09s10.73,1.35,15.17,4.04c4.44,2.7,7.9,6.54,10.37,11.52,2.47,4.98,3.72,10.69,3.75,17.12v3.08ZM1031.76,564.87c0-6.65-1.11-11.7-3.33-15.15-2.22-3.45-5.4-5.17-9.54-5.17-8.09,0-12.37,6.07-12.83,18.2l-.05,4.92c0,6.56,1.09,11.6,3.26,15.12,2.18,3.52,5.41,5.29,9.7,5.29s7.22-1.73,9.42-5.19c2.21-3.46,3.32-8.44,3.36-14.94v-3.08Z"/>
      <path class="st13" d="M1112.39,599.76h-16.04l-23.72-41.65v41.65h-16.14v-66.93h16.14l23.67,41.65v-41.65h16.09v66.93Z"/>
      <path class="st13" d="M1160.61,587.26h-22.11l-3.86,12.5h-17.24l24.55-66.93h15.17l24.73,66.93h-17.33l-3.91-12.5ZM1142.36,574.8h14.39l-7.22-23.22-7.17,23.22Z"/>
      <path class="st13" d="M1202.86,587.35h28.09v12.41h-44.22v-66.93h16.14v54.52Z"/>
      <path class="st13" d="M1315.35,577.1c-.21,4.66-1.47,8.77-3.77,12.34-2.3,3.57-5.52,6.34-9.68,8.3-4.15,1.96-8.9,2.94-14.23,2.94-8.8,0-15.72-2.87-20.78-8.6s-7.58-13.82-7.58-24.27v-3.31c0-6.56,1.14-12.3,3.42-17.22s5.57-8.72,9.86-11.4c4.29-2.68,9.25-4.02,14.89-4.02,8.12,0,14.65,2.14,19.58,6.41,4.93,4.28,7.74,10.17,8.41,17.68h-16.09c-.12-4.08-1.15-7-3.08-8.78-1.93-1.78-4.87-2.67-8.83-2.67s-6.96,1.5-8.83,4.5c-1.87,3-2.85,7.8-2.94,14.39v4.74c0,7.14.9,12.24,2.69,15.31,1.79,3.06,4.88,4.6,9.26,4.6,3.71,0,6.54-.87,8.5-2.62,1.96-1.75,3-4.52,3.13-8.32h16.04Z"/>
      <path class="st13" d="M1379.66,567.67c0,6.53-1.21,12.31-3.63,17.33-2.42,5.03-5.86,8.9-10.32,11.61-4.46,2.71-9.54,4.07-15.24,4.07s-10.76-1.31-15.17-3.93c-4.41-2.62-7.85-6.37-10.32-11.24-2.47-4.87-3.76-10.47-3.88-16.78v-3.77c0-6.56,1.2-12.34,3.61-17.35,2.41-5.01,5.85-8.88,10.34-11.61,4.49-2.73,9.6-4.09,15.33-4.09s10.73,1.35,15.17,4.04c4.44,2.7,7.9,6.54,10.37,11.52,2.47,4.98,3.72,10.69,3.75,17.12v3.08ZM1363.25,564.87c0-6.65-1.11-11.7-3.33-15.15-2.22-3.45-5.4-5.17-9.54-5.17-8.09,0-12.37,6.07-12.83,18.2l-.05,4.92c0,6.56,1.09,11.6,3.26,15.12,2.18,3.52,5.41,5.29,9.7,5.29s7.22-1.73,9.42-5.19c2.21-3.46,3.32-8.44,3.36-14.94v-3.08Z"/>
      <path class="st13" d="M1391.25,584.73c2.45,0,4.49.73,6.11,2.18,1.62,1.46,2.44,3.32,2.44,5.58s-.81,4.13-2.44,5.59c-1.62,1.46-3.66,2.18-6.11,2.18s-4.53-.74-6.14-2.21c-1.61-1.47-2.41-3.33-2.41-5.56s.8-4.09,2.41-5.56c1.61-1.47,3.65-2.21,6.14-2.21Z"/>
      <path class="st13" d="M1415.57,617.78l-7.82-3.68,1.56-3.13c2.14-3.98,3.26-7.79,3.36-11.4v-11.49h12.41l-.05,9.98c-.03,3.52-.94,7.11-2.71,10.76-1.78,3.65-4.03,6.63-6.76,8.96Z"/>
      <path class="st13" d="M1475.79,587.35h28.09v12.41h-44.22v-66.93h16.14v54.52Z"/>
      <path class="st13" d="M1553.8,545.29h-20.09v54.48h-16.14v-54.48h-19.72v-12.46h55.95v12.46Z"/>
      <path class="st13" d="M1560.6,599.76v-66.93h21.56c5.91,0,11.23,1.34,15.95,4.02,4.72,2.68,8.4,6.47,11.06,11.35,2.65,4.89,3.99,10.37,4.02,16.43v3.08c0,6.13-1.29,11.62-3.88,16.48-2.59,4.86-6.24,8.66-10.94,11.4-4.71,2.74-9.95,4.13-15.75,4.16h-22.02ZM1576.74,545.29v42.06h5.61c4.63,0,8.18-1.65,10.67-4.94,2.48-3.29,3.72-8.19,3.72-14.69v-2.9c0-6.47-1.24-11.34-3.72-14.62-2.48-3.28-6.1-4.92-10.85-4.92h-5.42Z"/>
      <path class="st13" d="M1630.34,584.73c2.45,0,4.49.73,6.11,2.18,1.62,1.46,2.44,3.32,2.44,5.58s-.81,4.13-2.44,5.59c-1.62,1.46-3.66,2.18-6.11,2.18s-4.53-.74-6.14-2.21c-1.61-1.47-2.41-3.33-2.41-5.56s.8-4.09,2.41-5.56c1.61-1.47,3.65-2.21,6.14-2.21Z"/>
    </g>
    <g>
      <g>
        <path class="st12" d="M596.66,145.12l1.97,8.33,1.97-8.33c2.13-9,9.16-16.03,18.16-18.16l8.33-1.97-8.33-1.97c-9-2.13-16.03-9.16-18.16-18.16l-1.97-8.33-1.97,8.33c-2.13,9-9.16,16.03-18.16,18.16l-8.33,1.97,8.33,1.97c9,2.13,16.03,9.16,18.16,18.16Z"/>
        <path class="st4" d="M556.49,224.85c-19.69-51.35-69.4-87.84-127.68-87.84-45.72,0-86.18,22.46-111.01,56.92-8.35-1.59-16.95-2.46-25.77-2.46-34.69,0-66.35,12.93-90.46,34.21,64.14,11.31,65.97,57.11,65.97,57.11-7.89-22.65-25.86-34.43-42.35-40.57-18.57-6.91-38.82-7.74-58.1-3.18-60.31,14.26-105.18,68.44-105.18,133.11,0,.35,0,.7,0,1.05,0,.9.03,1.79.06,2.68,1.6,43.17,40.44,75.4,83.35,70.4,86.65-10.09,280.38-51.51,411.17-221.44Z"/>
        <path class="st11" d="M747.11,356.52c-2.67-71.93-61.85-130.05-133.82-131.54-9.31-.19-18.41.56-27.22,2.15,9.68-34.91,13.34-67.12,13.34-67.12,0,0-41.35,187.58-299.23,303.14h83.3c72.88-42.89,145.23-106.78,199.06-201.97,0,0-22.5,102.04-137.77,201.97h47.7c26.63-28.94,51.43-62.31,73.2-100.8,0,0-9.52,43.15-47.85,100.8h126.13c56.58,0,103.54-45.53,103.26-102.12,0-1.5-.04-3.01-.1-4.52Z"/>
      </g>
      <g>
        <path class="st13" d="M813.96,347.27h72.27l-.21-41.95h-75.38v-20.56h174.02v20.56h-77.67v41.95h74.14v20.56h-73.31c9.27,36.13,34.89,59.88,76.84,71.23v23.05c-41.53-12.32-70.33-33.85-86.39-64.58-4.71,10.66-11.21,20.01-19.52,28.04-16.34,17.03-39.39,29.56-69.15,37.59v-21.81c23.53-7.48,41.67-17.93,54.41-31.36,11.91-12.32,19.04-26.37,21.39-42.16h-71.44v-20.56Z"/>
        <path class="st13" d="M1062.74,301.59h-15.37c-7.2,7.75-15.09,12.6-23.67,14.54l-.21-20.35c8.17-2.21,15.02-8.72,20.56-19.52l19.52.21c-1.39,3.05-2.84,5.81-4.36,8.31h53.99v16.82h-30.94v15.16c0,1.25-.07,2.42-.21,3.53h33.23v17.03h-34.26c5.12,8.03,16.27,14.19,33.43,18.48v20.56c-19.52-6.23-34.13-14.81-43.82-25.75-9.69,12.18-25.27,21.88-46.72,29.07v-20.97c15.37-5.4,26.09-12.53,32.19-21.39h-32.81v-17.03h39.25c.14-.97.21-1.94.21-2.91v-15.78ZM1152.46,381.75c25.89.69,38.83,13.78,38.83,39.25,0,23.39-11.21,36.06-33.64,38l-120.65-.21v-77.04h115.46ZM1056.93,412.06h112.14c-2.36-8.31-8.03-12.46-17.03-12.46h-95.11v12.46ZM1056.93,440.31l96.77.21c8.17-.14,13.22-4.02,15.16-11.63h-111.93v11.42ZM1167.62,284.35c9.97.69,17.51,5.19,22.64,13.5,5.26,7.76,7.89,18.9,7.89,33.43,0,13.71-2.56,24.09-7.68,31.15-4.98,7.62-12.39,11.77-22.22,12.46h-45.69v-90.54h45.06ZM1141.86,357.45h22.64c4.98-.42,8.65-2.98,11.01-7.68,2.49-4.57,3.74-10.45,3.74-17.65,0-8.72-1.32-15.78-3.95-21.18-2.77-5.4-6.65-8.51-11.63-9.34h-21.8v55.86Z"/>
        <path class="st13" d="M1357.63,281.65c16.89,1.94,30.11,10.8,39.66,26.58,9,13.99,13.84,33.16,14.54,57.52,0,29.9-4.36,51.36-13.08,64.38-9.14,16.2-22.36,25.47-39.67,27.83h-121.48v-176.31h120.03ZM1257.95,438.85h100.72c11.35-1.53,19.45-8.72,24.3-21.6,5.54-12.88,8.31-29.49,8.31-49.84-.55-20.21-3.81-35.99-9.76-47.35-5.96-12.46-14.82-19.24-26.58-20.35h-96.98v139.14ZM1269.16,320.28h49.63c-.83-4.43-1.52-8.86-2.08-13.29h17.03c.55,4.57,1.17,9,1.87,13.29h11.42c-.83-3.46-1.87-6.92-3.12-10.38h15.58c1.11,3.46,2.21,6.92,3.32,10.38h10.18v16.82h-34.26c2.77,13.15,6.57,25.68,11.42,37.59,2.77-7.75,4.29-16.33,4.57-25.75h17.03c-1.25,17.86-5.47,32.95-12.67,45.27,5.54,11.08,11.91,21.53,19.11,31.36h-20.14c-3.6-5.54-6.92-11.07-9.97-16.61-7.2,7.75-16.06,14.05-26.58,18.9l-.21-19.31c7.61-4.15,13.91-9.35,18.9-15.58-7.89-17.3-13.98-35.93-18.27-55.86h-52.75v-16.82ZM1316.1,401.68v16.41c-12.46,2.63-28.04,4.5-46.73,5.61v-17.03c14.95-.28,30.53-1.94,46.73-4.98ZM1301.35,346.23c6.09,0,11.35,2.42,15.78,7.27,3.6,4.43,5.4,10.25,5.4,17.44s-2.08,13.5-6.23,18.48c-4.15,4.71-9.34,7.13-15.57,7.27h-29.07v-50.46h29.7ZM1287.44,381.95h11.21c5.81-.83,8.72-4.5,8.72-11.01,0-5.67-3.11-9.14-9.34-10.38h-10.59v21.39Z"/>
        <path class="st13" d="M1450.46,280.4h39.04c3.74.42,7.2,2.28,10.38,5.61,2.35,2.49,3.67,5.75,3.95,9.76,0,4.71-.9,11.84-2.7,21.39-4.43,17.03-6.65,27-6.65,29.9s3.04,18.41,9.14,46.1c2.21,11.63,3.32,20.08,3.32,25.33-.28,12.04-4.43,18.41-12.46,19.11h-18.69v-17.44h9.55c2.08,0,3.12-2.49,3.12-7.48,0-5.26-1.45-14.81-4.36-28.66-4.98-22.43-7.48-34.82-7.48-37.17,0-3.04,1.52-10.66,4.57-22.84,2.77-13.15,4.15-20.77,4.15-22.84,0-2.21-.83-3.39-2.49-3.53h-12.88l-.21,165.09h-19.31v-182.33ZM1528.75,276.04h17.24c-.69,2.36-1.45,4.5-2.28,6.44h12.67c9.97,1.25,15.16,5.75,15.58,13.5,0,3.19-.42,6.51-1.25,9.97,4.15,7.48,9.27,14.33,15.37,20.56,10.66-12.6,15.99-21.25,15.99-25.96,0-1.66-1.18-2.49-3.53-2.49h-20.14v-15.78h25.54c5.26.55,8.93,2.28,11.01,5.19,2.77,3.19,4.15,6.79,4.15,10.8,0,7.89-2.98,15.99-8.93,24.3-3.19,4.71-7.2,9.48-12.04,14.33,7.75,5.82,16.41,10.94,25.96,15.37v20.56c-6.09-2.21-11.91-4.91-17.44-8.1v6.44h-83.27v-5.4c-5.12,3.46-10.52,6.92-16.2,10.38v-21.18c6.37-4.01,11.91-7.96,16.61-11.84-4.43-4.84-7.96-10.94-10.59-18.27-2.08,1.39-4.08,2.63-6.02,3.74v-19.73c8.58-7.34,15.78-18.27,21.6-32.81ZM1521.27,410.61h17.24c-.55,21.74-10.8,37.59-30.73,47.56v-20.56c9-6.65,13.5-15.64,13.5-27ZM1511.3,384.86h111.93v18.27h-49.22c.55,6.51,1.04,13.71,1.45,21.6,0,9.55-.55,15.99-1.66,19.31-1.53,10.1-7.82,15.92-18.9,17.44-8.59,0-15.65-.49-21.18-1.45v-17.44c4.71.97,9.14,1.45,13.29,1.45,5.67,0,8.65-4.57,8.93-13.71-.14-9.97-.55-19.03-1.25-27.2h-43.4v-18.27ZM1516.91,321.94h11.63c1.38,5.26,3.46,9.07,6.23,11.42,2.08-2.08,3.95-4.08,5.61-6.02-4.71-4.84-8.51-11.01-11.42-18.48-3.74,4.98-7.75,9.35-12.04,13.08ZM1530.2,307.19h14.12c1.11,3.32,2.56,5.89,4.36,7.68,2.35-4.84,3.6-9.48,3.74-13.91,0-2.21-1.11-3.32-3.32-3.32h-12.67c-1.8,3.32-3.88,6.51-6.23,9.55ZM1589.8,353.09c-9.97-8.17-18.69-18.07-26.17-29.7-2.77,5.12-6.37,10.25-10.8,15.37-4.15,4.98-8.79,9.76-13.91,14.33h50.88ZM1591.05,410.61h18.07c.55,10.94,5.54,20.08,14.95,27.41v21.39c-18-9.69-29-25.96-33.02-48.8Z"/>
      </g>
    </g>
  </g>
</svg>